<svg width="32" height="34" viewBox="0 0 32 34" fill="none" xmlns="http://www.w3.org/2000/svg">
<rect width="32" height="33.7778" rx="16" fill="white"/>
<path d="M8 11.5556H9.77778H24" stroke="#7F67BE" stroke-width="2" stroke-linecap="round" stroke-linejoin="round"/>
<path d="M12.4445 11.5556V9.77778C12.4445 9.30628 12.6318 8.8541 12.9652 8.5207C13.2986 8.1873 13.7508 8 14.2223 8H17.7778C18.2493 8 18.7015 8.1873 19.0349 8.5207C19.3683 8.8541 19.5556 9.30628 19.5556 9.77778V11.5556M22.2223 11.5556V24C22.2223 24.4715 22.035 24.9237 21.7016 25.2571C21.3682 25.5905 20.916 25.7778 20.4445 25.7778H11.5556C11.0841 25.7778 10.6319 25.5905 10.2985 25.2571C9.96513 24.9237 9.77783 24.4715 9.77783 24V11.5556H22.2223Z" stroke="#7F67BE" stroke-width="2" stroke-linecap="round" stroke-linejoin="round"/>
</svg>
