<svg width="24" height="26" viewBox="0 0 24 26" fill="none" xmlns="http://www.w3.org/2000/svg">
<rect y="0.333336" width="24" height="25.3333" rx="12" fill="#E92119"/>
<path d="M6 9H7.33333H18" stroke="white" stroke-width="1.5" stroke-linecap="round" stroke-linejoin="round"/>
<path d="M9.33337 9V7.66667C9.33337 7.31305 9.47385 6.97391 9.7239 6.72386C9.97395 6.47381 10.3131 6.33334 10.6667 6.33334H13.3334C13.687 6.33334 14.0261 6.47381 14.2762 6.72386C14.5262 6.97391 14.6667 7.31305 14.6667 7.66667V9M16.6667 9V18.3333C16.6667 18.687 16.5262 19.0261 16.2762 19.2761C16.0261 19.5262 15.687 19.6667 15.3334 19.6667H8.66671C8.31309 19.6667 7.97395 19.5262 7.7239 19.2761C7.47385 19.0261 7.33337 18.687 7.33337 18.3333V9H16.6667Z" stroke="white" stroke-width="1.5" stroke-linecap="round" stroke-linejoin="round"/>
</svg>
