<svg width="38" height="38" viewBox="0 0 38 38" fill="none" xmlns="http://www.w3.org/2000/svg">
<g clip-path="url(#clip0_63_204)">
<path d="M7.97595 10.9825V16.9957H13.9891" stroke="#E92119" stroke-width="2.00438" stroke-linecap="round" stroke-linejoin="round"/>
<path d="M10.4914 22.0066C11.1413 23.851 12.3729 25.4343 14.0008 26.5179C15.6286 27.6014 17.5646 28.1266 19.5169 28.0142C21.4692 27.9019 23.3321 27.1581 24.8249 25.8949C26.3177 24.6317 27.3596 22.9176 27.7935 21.0108C28.2274 19.104 28.0299 17.1079 27.2306 15.3231C26.4314 13.5384 25.0738 12.0617 23.3624 11.1156C21.651 10.1695 19.6784 9.80525 17.742 10.0777C15.8055 10.3501 14.01 11.2445 12.6261 12.6261L7.97595 16.9957" stroke="#E92119" stroke-width="2.00438" stroke-linecap="round" stroke-linejoin="round"/>
</g>
<rect x="0.5" y="0.500061" width="37" height="37" rx="18.5" stroke="#E92119"/>
<defs>
<clipPath id="clip0_63_204">
<rect width="24.0526" height="24.0526" fill="white" transform="translate(6.97375 6.97379)"/>
</clipPath>
</defs>
</svg>
