<svg width="166" height="28" viewBox="0 0 166 28" fill="none" xmlns="http://www.w3.org/2000/svg">
<path d="M21.12 23.52C16.128 24.0533 11.5413 24.32 7.36 24.32C5.26933 24.32 3.73333 23.8293 2.752 22.848C1.77067 21.8667 1.28 20.3307 1.28 18.24V8C1.28 5.76 1.78133 4.13867 2.784 3.136C3.808 2.112 5.44 1.6 7.68 1.6H19.2V6.08H8.96C7.68 6.08 7.04 6.72 7.04 8V18.24C7.04 18.7307 7.17867 19.1253 7.456 19.424C7.75467 19.7013 8.14933 19.84 8.64 19.84C11.0933 19.84 13.3333 19.7867 15.36 19.68V15.04H11.2V11.2H21.12V23.52ZM30.5663 10.72C29.7129 10.72 29.2863 11.1467 29.2863 12V13.76H34.7263V12C34.7263 11.1467 34.2996 10.72 33.4463 10.72H30.5663ZM39.6863 23.68C35.5689 24.1067 31.8356 24.32 28.4863 24.32C27.0356 24.32 25.8729 23.8827 24.9983 23.008C24.1236 22.1333 23.6863 20.9707 23.6863 19.52V11.84C23.6863 10.24 24.1343 8.992 25.0303 8.096C25.9476 7.17867 27.2063 6.72 28.8063 6.72H35.2063C36.8063 6.72 38.0543 7.17867 38.9503 8.096C39.8676 8.992 40.3263 10.24 40.3263 11.84V17.76H29.2863V19.04C29.2863 19.36 29.3929 19.6267 29.6063 19.84C29.8196 20.0533 30.0863 20.16 30.4062 20.16C32.5183 20.16 35.6116 20 39.6863 19.68V23.68ZM49.7538 10.72C48.9004 10.72 48.4738 11.1467 48.4738 12V13.76H53.9138V12C53.9138 11.1467 53.4871 10.72 52.6338 10.72H49.7538ZM58.8738 23.68C54.7564 24.1067 51.0231 24.32 47.6738 24.32C46.2231 24.32 45.0604 23.8827 44.1858 23.008C43.3111 22.1333 42.8738 20.9707 42.8738 19.52V11.84C42.8738 10.24 43.3218 8.992 44.2178 8.096C45.1351 7.17867 46.3938 6.72 47.9938 6.72H54.3938C55.9938 6.72 57.2418 7.17867 58.1378 8.096C59.0551 8.992 59.5138 10.24 59.5138 11.84V17.76H48.4738V19.04C48.4738 19.36 48.5804 19.6267 48.7938 19.84C49.0071 20.0533 49.2738 20.16 49.5938 20.16C51.7058 20.16 54.7991 20 58.8738 19.68V23.68Z" fill="#4F378B"/>
<path d="M75.88 1.6H82.28L75.08 12.8L82.44 24H76.04L71.56 16.96L67.08 24H60.68L68.04 12.8L60.84 1.6H67.208L71.56 8.64L75.88 1.6Z" fill="url(#paint0_linear_2_160)"/>
<path d="M75.88 1.6V0.599998H75.3204L75.0277 1.07698L75.88 1.6ZM82.28 1.6L83.1212 2.14076L84.1117 0.599998H82.28V1.6ZM75.08 12.8L74.2388 12.2592L73.8873 12.806L74.2443 13.3492L75.08 12.8ZM82.44 24V25H84.2937L83.2757 23.4508L82.44 24ZM76.04 24L75.1963 24.5369L75.4911 25H76.04V24ZM71.56 16.96L72.4037 16.4231L71.56 15.0974L70.7163 16.4231L71.56 16.96ZM67.08 24V25H67.6289L67.9237 24.5369L67.08 24ZM60.68 24L59.8443 23.4508L58.8263 25H60.68V24ZM68.04 12.8L68.8757 13.3492L69.2327 12.806L68.8812 12.2592L68.04 12.8ZM60.84 1.6V0.599998H59.0083L59.9988 2.14076L60.84 1.6ZM67.208 1.6L68.0586 1.07418L67.7655 0.599998H67.208V1.6ZM71.56 8.64L70.7094 9.16582L71.5631 10.5469L72.4123 9.16302L71.56 8.64ZM75.88 2.6H82.28V0.599998H75.88V2.6ZM81.4388 1.05924L74.2388 12.2592L75.9212 13.3408L83.1212 2.14076L81.4388 1.05924ZM74.2443 13.3492L81.6043 24.5492L83.2757 23.4508L75.9157 12.2508L74.2443 13.3492ZM82.44 23H76.04V25H82.44V23ZM76.8837 23.4631L72.4037 16.4231L70.7163 17.4969L75.1963 24.5369L76.8837 23.4631ZM70.7163 16.4231L66.2363 23.4631L67.9237 24.5369L72.4037 17.4969L70.7163 16.4231ZM67.08 23H60.68V25H67.08V23ZM61.5157 24.5492L68.8757 13.3492L67.2043 12.2508L59.8443 23.4508L61.5157 24.5492ZM68.8812 12.2592L61.6812 1.05924L59.9988 2.14076L67.1988 13.3408L68.8812 12.2592ZM60.84 2.6H67.208V0.599998H60.84V2.6ZM66.3574 2.12582L70.7094 9.16582L72.4106 8.11418L68.0586 1.07418L66.3574 2.12582ZM72.4123 9.16302L76.7323 2.12301L75.0277 1.07698L70.7077 8.11698L72.4123 9.16302Z" fill="#4F378B"/>
<path d="M100.504 22.976L101.211 23.6831H101.211L100.504 22.976ZM85.624 22.976L84.9086 23.6747L84.9168 23.6832L84.9253 23.6914L85.624 22.976ZM85.624 8.096L86.3311 8.80311L85.624 8.096ZM100.504 8.096L99.7886 8.79474L99.7968 8.80316L99.8053 8.81138L100.504 8.096ZM100.88 19.2C100.88 20.6004 100.485 21.5809 99.7969 22.2689L101.211 23.6831C102.358 22.5364 102.88 20.9996 102.88 19.2H100.88ZM99.7969 22.2689C99.1346 22.9312 98.1681 23.32 96.76 23.32V25.32C98.5519 25.32 100.081 24.8128 101.211 23.6831L99.7969 22.2689ZM96.76 23.32H89.4V25.32H96.76V23.32ZM89.4 23.32C87.993 23.32 87.0096 22.9315 86.3227 22.2606L84.9253 23.6914C86.0731 24.8125 87.607 25.32 89.4 25.32V23.32ZM86.3394 22.2773C85.6685 21.5904 85.28 20.607 85.28 19.2H83.28C83.28 20.993 83.7875 22.5269 84.9086 23.6747L86.3394 22.2773ZM85.28 19.2V11.84H83.28V19.2H85.28ZM85.28 11.84C85.28 10.4319 85.6688 9.4654 86.3311 8.80311L84.9169 7.38889C83.7872 8.5186 83.28 10.0481 83.28 11.84H85.28ZM86.3311 8.80311C87.0191 8.11513 87.9996 7.72 89.4 7.72V5.72C87.6004 5.72 86.0636 6.24221 84.9169 7.38889L86.3311 8.80311ZM89.4 7.72H96.76V5.72H89.4V7.72ZM96.76 7.72C98.1615 7.72 99.1251 8.1154 99.7886 8.79474L101.219 7.39726C100.091 6.24193 98.5585 5.72 96.76 5.72V7.72ZM99.8053 8.81138C100.485 9.47492 100.88 10.4385 100.88 11.84H102.88C102.88 10.0415 102.358 8.50908 101.203 7.38062L99.8053 8.81138ZM100.88 11.84V19.2H102.88V11.84H100.88ZM97.28 12.32C97.28 11.7392 97.1341 11.1199 96.6671 10.6529C96.2001 10.1859 95.5808 10.04 95 10.04V12.04C95.2725 12.04 95.2932 12.1075 95.2529 12.0671C95.2125 12.0268 95.28 12.0475 95.28 12.32H97.28ZM95 10.04H91.16V12.04H95V10.04ZM91.16 10.04C90.5792 10.04 89.9599 10.1859 89.4929 10.6529C89.0259 11.1199 88.88 11.7392 88.88 12.32H90.88C90.88 12.0475 90.9475 12.0268 90.9071 12.0671C90.8668 12.1075 90.8875 12.04 91.16 12.04V10.04ZM88.88 12.32V18.72H90.88V12.32H88.88ZM88.88 18.72C88.88 19.3008 89.0259 19.9201 89.4929 20.3871C89.9599 20.8541 90.5792 21 91.16 21V19C90.8875 19 90.8668 18.9325 90.9071 18.9729C90.9475 19.0132 90.88 18.9925 90.88 18.72H88.88ZM91.16 21H95V19H91.16V21ZM95 21C95.5808 21 96.2001 20.8541 96.6671 20.3871C97.1341 19.9201 97.28 19.3008 97.28 18.72H95.28C95.28 18.9925 95.2125 19.0132 95.2529 18.9729C95.2932 18.9325 95.2725 19 95 19V21ZM97.28 18.72V12.32H95.28V18.72H97.28ZM116.756 24L115.776 24.1961L115.936 25H116.756V24ZM116.436 22.4L117.417 22.2039L117.126 20.7474L115.886 21.5652L116.436 22.4ZM113.332 23.872L113.607 24.8336L113.62 24.8298L113.332 23.872ZM105.748 23.008L105.041 23.7151L105.748 23.008ZM105.78 8.416L106.487 9.12311L105.78 8.416ZM116.116 7.04V8.04H117.116V7.04H116.116ZM116.116 1.6V0.599998H115.116V1.6H116.116ZM121.716 1.6H122.716V0.599998H121.716V1.6ZM121.716 24V25H122.716V24H121.716ZM116.116 19.04L116.402 19.9982L117.116 19.7851V19.04H116.116ZM116.116 11.36H117.116V10.36H116.116V11.36ZM110.356 19.36L111.063 18.6529L110.356 19.36ZM117.737 23.8039L117.417 22.2039L115.456 22.5961L115.776 24.1961L117.737 23.8039ZM115.886 21.5652C114.958 22.1771 114.011 22.6243 113.045 22.9142L113.62 24.8298C114.787 24.4797 115.909 23.9455 116.987 23.2348L115.886 21.5652ZM113.058 22.9105C112.062 23.195 111.275 23.32 110.676 23.32V25.32C111.528 25.32 112.512 25.1463 113.607 24.8335L113.058 22.9105ZM110.676 23.32H109.236V25.32H110.676V23.32ZM109.236 23.32C108.001 23.32 107.11 22.9558 106.455 22.3009L105.041 23.7151C106.136 24.8096 107.57 25.32 109.236 25.32V23.32ZM106.455 22.3009C105.8 21.646 105.436 20.7548 105.436 19.52H103.436C103.436 21.1865 103.947 22.6206 105.041 23.7151L106.455 22.3009ZM105.436 19.52V12.16H103.436V19.52H105.436ZM105.436 12.16C105.436 10.7519 105.825 9.7854 106.487 9.12311L105.073 7.70889C103.943 8.8386 103.436 10.3681 103.436 12.16H105.436ZM106.487 9.12311C107.175 8.43513 108.156 8.04 109.556 8.04V6.04C107.757 6.04 106.22 6.56221 105.073 7.70889L106.487 9.12311ZM109.556 8.04H116.116V6.04H109.556V8.04ZM117.116 7.04V1.6H115.116V7.04H117.116ZM116.116 2.6H121.716V0.599998H116.116V2.6ZM120.716 1.6V24H122.716V1.6H120.716ZM121.716 23H116.756V25H121.716V23ZM112.276 20.68C113.529 20.68 114.908 20.4443 116.402 19.9982L115.83 18.0818C114.466 18.489 113.285 18.68 112.276 18.68V20.68ZM117.116 19.04V11.36H115.116V19.04H117.116ZM116.116 10.36H111.316V12.36H116.116V10.36ZM111.316 10.36C110.735 10.36 110.116 10.5059 109.649 10.9729C109.182 11.4399 109.036 12.0592 109.036 12.64H111.036C111.036 12.3675 111.104 12.3468 111.063 12.3871C111.023 12.4275 111.044 12.36 111.316 12.36V10.36ZM109.036 12.64V18.56H111.036V12.64H109.036ZM109.036 18.56C109.036 19.1274 109.236 19.654 109.649 20.0671L111.063 18.6529C111.054 18.644 111.05 18.6381 111.048 18.6353C111.047 18.6327 111.046 18.6307 111.045 18.6286C111.044 18.6262 111.036 18.6073 111.036 18.56H109.036ZM109.649 20.0671C110.062 20.4802 110.589 20.68 111.156 20.68V18.68C111.109 18.68 111.09 18.6725 111.088 18.6715C111.086 18.6707 111.084 18.6697 111.081 18.6679C111.078 18.6661 111.072 18.6618 111.063 18.6529L109.649 20.0671ZM111.156 20.68H112.276V18.68H111.156V20.68ZM136.592 19.04L136.879 19.9982L137.592 19.7851V19.04H136.592ZM136.592 7.04V6.04H135.592V7.04H136.592ZM142.193 7.04H143.193V6.04H142.193V7.04ZM142.193 24V25H143.193V24H142.193ZM137.233 24L136.252 24.1961L136.413 25H137.233V24ZM136.912 22.4L137.893 22.2039L137.602 20.7474L136.362 21.5652L136.912 22.4ZM133.809 23.872L134.083 24.8336L134.096 24.8298L133.809 23.872ZM126.224 23.008L126.932 22.3009L126.224 23.008ZM124.912 7.04V6.04H123.912V7.04H124.912ZM130.513 7.04H131.513V6.04H130.513V7.04ZM130.833 19.36L131.54 18.6529L130.833 19.36ZM132.753 20.68C134.005 20.68 135.384 20.4443 136.879 19.9982L136.306 18.0818C134.942 18.489 133.761 18.68 132.753 18.68V20.68ZM137.592 19.04V7.04H135.592V19.04H137.592ZM136.592 8.04H142.193V6.04H136.592V8.04ZM141.193 7.04V24H143.193V7.04H141.193ZM142.193 23H137.233V25H142.193V23ZM138.213 23.8039L137.893 22.2039L135.932 22.5961L136.252 24.1961L138.213 23.8039ZM136.362 21.5652C135.434 22.1771 134.488 22.6243 133.521 22.9142L134.096 24.8298C135.263 24.4797 136.386 23.9455 137.463 23.2348L136.362 21.5652ZM133.534 22.9105C132.538 23.195 131.751 23.32 131.153 23.32V25.32C132.005 25.32 132.988 25.1463 134.083 24.8335L133.534 22.9105ZM131.153 23.32H129.713V25.32H131.153V23.32ZM129.713 23.32C128.478 23.32 127.586 22.9558 126.932 22.3009L125.517 23.7151C126.612 24.8096 128.046 25.32 129.713 25.32V23.32ZM126.932 22.3009C126.277 21.646 125.912 20.7548 125.912 19.52H123.912C123.912 21.1865 124.423 22.6206 125.517 23.7151L126.932 22.3009ZM125.912 19.52V7.04H123.912V19.52H125.912ZM124.912 8.04H130.513V6.04H124.912V8.04ZM129.513 7.04V18.56H131.513V7.04H129.513ZM129.513 18.56C129.513 19.1274 129.712 19.654 130.125 20.0671L131.54 18.6529C131.531 18.644 131.526 18.6381 131.525 18.6353C131.523 18.6327 131.522 18.6307 131.521 18.6286C131.52 18.6262 131.513 18.6073 131.513 18.56H129.513ZM130.125 20.0671C130.539 20.4802 131.065 20.68 131.632 20.68V18.68C131.585 18.68 131.566 18.6725 131.564 18.6715C131.562 18.6707 131.56 18.6697 131.557 18.6679C131.554 18.6661 131.549 18.6618 131.54 18.6529L130.125 20.0671ZM131.632 20.68H132.753V18.68H131.632V20.68ZM145.029 19.36L145.084 18.3615L144.029 18.3038V19.36H145.029ZM158.053 19.424L157.346 18.7169V18.7169L158.053 19.424ZM158.501 15.36H159.501V14.36H158.501V15.36ZM146.245 13.856L145.531 14.5556L145.538 14.5631L145.546 14.5705L146.245 13.856ZM146.245 3.136L146.952 3.84311V3.84311L146.245 3.136ZM162.373 1.6H163.373V0.599998H162.373V1.6ZM162.373 6.08V7.08H163.373V6.08H162.373ZM162.789 22.848L162.082 22.1409L162.789 22.848ZM154.725 24.256L154.682 25.2551L154.69 25.2554L154.725 24.256ZM151.781 24.128L151.732 25.1268L151.738 25.1271L151.781 24.128ZM145.029 23.68H144.029V24.6008L144.947 24.6766L145.029 23.68ZM144.975 20.3585C150.817 20.6783 154.8 20.84 156.901 20.84V18.84C154.863 18.84 150.933 18.6817 145.084 18.3615L144.975 20.3585ZM156.901 20.84C157.587 20.84 158.251 20.6404 158.76 20.1311L157.346 18.7169C157.301 18.7622 157.197 18.84 156.901 18.84V20.84ZM158.76 20.1311C159.277 19.6145 159.501 18.9495 159.501 18.24H157.501C157.501 18.5118 157.427 18.6362 157.346 18.7169L158.76 20.1311ZM159.501 18.24V15.36H157.501V18.24H159.501ZM158.501 14.36H151.141V16.36H158.501V14.36ZM151.141 14.36C149.02 14.36 147.7 13.8811 146.945 13.1415L145.546 14.5705C146.838 15.8363 148.782 16.36 151.141 16.36V14.36ZM146.96 13.1564C146.22 12.4011 145.741 11.0811 145.741 8.96H143.741C143.741 11.3189 144.265 13.2629 145.531 14.5556L146.96 13.1564ZM145.741 8.96V8H143.741V8.96H145.741ZM145.741 8C145.741 5.87646 146.221 4.57426 146.952 3.84311L145.538 2.42889C144.264 3.70307 143.741 5.64354 143.741 8H145.741ZM146.952 3.84311C147.708 3.08735 149.025 2.6 151.141 2.6V0.599998C148.778 0.599998 146.83 1.13664 145.538 2.42889L146.952 3.84311ZM151.141 2.6H162.373V0.599998H151.141V2.6ZM161.373 1.6V6.08H163.373V1.6H161.373ZM162.373 5.08H152.421V7.08H162.373V5.08ZM152.421 5.08C151.627 5.08 150.848 5.27921 150.274 5.85289C149.7 6.42657 149.501 7.20586 149.501 8H151.501C151.501 7.51414 151.622 7.33343 151.688 7.26711C151.755 7.20079 151.935 7.08 152.421 7.08V5.08ZM149.501 8V8.64H151.501V8H149.501ZM149.501 8.64C149.501 9.43414 149.7 10.2134 150.274 10.7871C150.848 11.3608 151.627 11.56 152.421 11.56V9.56C151.935 9.56 151.755 9.43921 151.688 9.37289C151.622 9.30657 151.501 9.12585 151.501 8.64H149.501ZM152.421 11.56H158.181V9.56H152.421V11.56ZM158.181 11.56C160.139 11.56 161.365 12.0218 162.082 12.7391L163.496 11.3249C162.251 10.0795 160.405 9.56 158.181 9.56V11.56ZM162.082 12.7391C162.799 13.4564 163.261 14.682 163.261 16.64H165.261C165.261 14.4166 164.742 12.5703 163.496 11.3249L162.082 12.7391ZM163.261 16.64V18.24H165.261V16.64H163.261ZM163.261 18.24C163.261 20.198 162.799 21.4236 162.082 22.1409L163.496 23.5551C164.742 22.3097 165.261 20.4634 165.261 18.24H163.261ZM162.082 22.1409C161.365 22.8582 160.139 23.32 158.181 23.32V25.32C160.405 25.32 162.251 24.8005 163.496 23.5551L162.082 22.1409ZM158.181 23.32C157.106 23.32 155.966 23.2989 154.76 23.2566L154.69 25.2554C155.917 25.2984 157.08 25.32 158.181 25.32V23.32ZM154.769 23.2569L151.825 23.1289L151.738 25.1271L154.682 25.2551L154.769 23.2569ZM151.83 23.1292C149.666 23.0231 147.427 22.8745 145.112 22.6834L144.947 24.6766C147.283 24.8695 149.544 25.0196 151.732 25.1268L151.83 23.1292ZM146.029 23.68V19.36H144.029V23.68H146.029Z" fill="#4F378B"/>
<defs>
<linearGradient id="paint0_linear_2_160" x1="55" y1="14" x2="88.5" y2="14" gradientUnits="userSpaceOnUse">
<stop offset="0.493837" stop-color="white" stop-opacity="0"/>
<stop offset="0.494804" stop-color="#4F378B"/>
</linearGradient>
</defs>
</svg>
